REM MD5 f7aea64c3ccb125fa10ed4896dc0f032
FILE "Kart Challenge (Europe) (En,Fr,De,It).bin" BINARY
  TRACK 01 MODE2/2352
    INDEX 01 00:00:00
  TRACK 02 AUDIO
    INDEX 00 01:21:32
    INDEX 01 01:23:32
  TRACK 03 AUDIO
    INDEX 00 07:04:61
    INDEX 01 07:06:61
REM LEADOUT 12:29:26
